<svg width="32" height="32" viewBox="0 0 32 32" fill="none" xmlns="http://www.w3.org/2000/svg">
  <rect width="32" height="32" rx="8" fill="#006400"/>
  <path d="M16 6C10.48 6 6 10.48 6 16C6 21.52 10.48 26 16 26C21.52 26 26 21.52 26 16C26 10.48 21.52 6 16 6ZM16 24C11.59 24 8 20.41 8 16C8 11.59 11.59 8 16 8C20.41 8 24 11.59 24 16C24 20.41 20.41 24 16 24Z" fill="white"/>
  <path d="M16 10C12.69 10 10 12.69 10 16C10 19.31 12.69 22 16 22C19.31 22 22 19.31 22 16C22 12.69 19.31 10 16 10ZM16 20C13.79 20 12 18.21 12 16C12 13.79 13.79 12 16 12C18.21 12 20 13.79 20 16C20 18.21 18.21 20 16 20Z" fill="white"/>
  <circle cx="16" cy="16" r="2" fill="white"/>
</svg>